<svg xmlns="http://www.w3.org/2000/svg" width="12" height="12" viewBox="0 0 12 12">
  <defs>
    <style>
      .cls-1 {
        fill: #fff;
      }
    </style>
  </defs>
  <path id="Icon_Copyright" data-name="Icon Copyright" class="cls-1" d="M7.848,8.316a1.534,1.534,0,0,1,.18-.522,1.05,1.05,0,0,1,.354-.372,1.065,1.065,0,0,1,.546-.138,1.088,1.088,0,0,1,.378.078.967.967,0,0,1,.312.216,1.155,1.155,0,0,1,.2.318,1.051,1.051,0,0,1,.084.384H10.98a2.148,2.148,0,0,0-.168-.774,1.8,1.8,0,0,0-.42-.606,1.96,1.96,0,0,0-.648-.4,2.318,2.318,0,0,0-.834-.138,2.345,2.345,0,0,0-1.02.2,2.063,2.063,0,0,0-.72.552,2.255,2.255,0,0,0-.426.816,3.514,3.514,0,0,0-.144.984v.162a3.513,3.513,0,0,0,.138.984,2.181,2.181,0,0,0,.426.81,2.048,2.048,0,0,0,.72.546,2.435,2.435,0,0,0,1.02.2A2.289,2.289,0,0,0,9.7,11.49a2.047,2.047,0,0,0,.648-.378,1.831,1.831,0,0,0,.444-.564,1.615,1.615,0,0,0,.18-.69H9.894a.854.854,0,0,1-.09.348.883.883,0,0,1-.216.276.945.945,0,0,1-.312.18,1.191,1.191,0,0,1-.36.06,1.019,1.019,0,0,1-.534-.138,1.05,1.05,0,0,1-.354-.372,1.568,1.568,0,0,1-.18-.528,4.044,4.044,0,0,1-.048-.6V8.922a4,4,0,0,1,.048-.606ZM9,3a6,6,0,1,0,6,6A6,6,0,0,0,9,3ZM9,13.8A4.8,4.8,0,1,1,13.8,9,4.806,4.806,0,0,1,9,13.8Z" transform="translate(-3 -3)"/>
</svg>
