<svg xmlns="http://www.w3.org/2000/svg" width="18" height="16" viewBox="0 0 18 16">
  <defs>
    <style>
      .cls-1 {
        fill: #fff;
        opacity: 0.3;
      }
    </style>
  </defs>
  <path id="Icon_Subscriptions" data-name="Icon Subscriptions" class="cls-1" d="M13.078,7.294,6.327,6.306C5.545,6.194,5,5.828,5,5.422c0-.509.825-.922,1.844-.922H10.99a6.789,6.789,0,0,1,2.138.328,1.766,1.766,0,0,0,1.219-.062L16.523,3.7c.444-.216.381-.575-.113-.766A15.266,15.266,0,0,0,11,2V.5c0-.275-.45-.5-1-.5H8c-.55,0-1,.225-1,.5V2H6.846C2.863,2-.337,3.709.032,5.738.294,7.178,2.495,8.35,5.27,8.756l6.408.938c.781.116,1.325.478,1.325.884,0,.509-.825.922-1.844.922H7.014a6.789,6.789,0,0,1-2.138-.328,1.766,1.766,0,0,0-1.219.063L1.482,12.3c-.444.216-.381.575.113.766A15.266,15.266,0,0,0,7,14v1.5c0,.275.45.5,1,.5h2c.55,0,1-.225,1-.5V13.994c2.913-.028,5.645-.894,6.608-2.272,1.344-1.925-.913-3.9-4.532-4.428Z" transform="translate(-0.003)"/>
</svg>
