<svg xmlns="http://www.w3.org/2000/svg" width="15" height="15.086" viewBox="0 0 15 15.086">
  <defs>
    <style>
      .cls-1 {
        fill: #fff;
        opacity: 0.34;
      }
    </style>
  </defs>
  <path id="Icon_Confluence" data-name="Icon Confluence" class="cls-1" d="M.069,13.036a.515.515,0,0,0,.161.681l3.1,2a.464.464,0,0,0,.656-.163.011.011,0,0,1,0-.006c1.966-3.44,2.359-2.941,8.231-.021a.468.468,0,0,0,.636-.236s0-.009.006-.012l1.477-3.5a.509.509,0,0,0-.237-.653c-.65-.319-1.94-.957-3.1-1.542C3.737,5.886,1.308,10.985.069,13.036Zm14.867-9.57a.515.515,0,0,0-.161-.681l-3.1-2a.463.463,0,0,0-.662.135A.272.272,0,0,0,11,.955C9.023,4.408,8.619,3.887,2.773.983a.468.468,0,0,0-.636.236s0,.009-.006.012L.652,4.73a.509.509,0,0,0,.237.653C1.54,5.7,2.832,6.34,4,6.928c7.267,3.68,9.693-1.392,10.941-3.462Z" transform="translate(-0.003 -0.704)"/>
</svg>
