<svg xmlns="http://www.w3.org/2000/svg" width="17" height="15" viewBox="0 0 17 15">
  <defs>
    <style>
      .cls-1 {
        fill: #fff;
        opacity: 0.3;
      }
    </style>
  </defs>
  <path id="Icon_Support" data-name="Icon Support" class="cls-1" d="M19.611,3H6.389A1.707,1.707,0,0,0,4.5,4.429v10a1.707,1.707,0,0,0,1.889,1.429h3.778L13,18l2.833-2.143h3.778c1.039,0,1.889-.643,1.889-1.429v-10C21.5,3.643,20.65,3,19.611,3ZM13.944,14.429H12.056V13h1.889ZM15.9,8.893l-.85.657a2.213,2.213,0,0,0-1.105,2.021H12.056v-.357a2.579,2.579,0,0,1,1.105-2.021l1.171-.9a1.257,1.257,0,0,0,.557-1.007c0-.786-.85-1.429-1.889-1.429s-1.889.643-1.889,1.429H9.222c0-1.579,1.691-2.857,3.778-2.857s3.778,1.279,3.778,2.857A2.04,2.04,0,0,1,15.9,8.893Z" transform="translate(-4.5 -3)"/>
</svg>
