<svg xmlns="http://www.w3.org/2000/svg" width="18" height="15" viewBox="0 0 18 15">
  <defs>
    <style>
      .cls-1 {
        fill: #fff;
        opacity: 0.34;
      }
    </style>
  </defs>
  <path id="Icon_Github" data-name="Icon Github" class="cls-1" d="M6.021,12.64c0,.062-.083.112-.189.112s-.2-.04-.2-.112.083-.112.189-.112S6.021,12.569,6.021,12.64ZM4.892,12.5c-.025.062.047.133.156.152s.2,0,.225-.062-.047-.133-.156-.161S4.917,12.439,4.892,12.5Zm1.6-.053c-.105.022-.178.081-.167.152s.105.1.214.081.178-.081.167-.143S6.6,12.439,6.5,12.448ZM8.884.563C3.85.563,0,3.829,0,8.131c0,3.44,2.533,6.383,6.151,7.419.465.071.628-.174.628-.375s-.011-1.253-.011-1.9c0,0-2.54.465-3.074-.924a2.5,2.5,0,0,0-1.009-1.135s-.831-.487.058-.478a1.994,1.994,0,0,1,1.4.8,2.111,2.111,0,0,0,2.646.648,1.643,1.643,0,0,1,.581-1.045C5.342,10.944,3.3,10.693,3.3,7.709a2.191,2.191,0,0,1,.856-1.827,2.537,2.537,0,0,1,.094-2.106c.758-.2,2.5.837,2.5.837a9.982,9.982,0,0,1,4.558,0s1.746-1.042,2.5-.837a2.535,2.535,0,0,1,.094,2.106,2.271,2.271,0,0,1,.936,1.827c0,2.993-2.137,3.232-4.166,3.427a1.7,1.7,0,0,1,.617,1.439c0,1.045-.011,2.339-.011,2.593,0,.2.167.447.628.375A7.885,7.885,0,0,0,18,8.131C18,3.829,13.917.563,8.884.563ZM3.527,11.26c-.047.031-.036.1.025.161a.155.155,0,0,0,.189.031c.047-.031.036-.1-.025-.161A.155.155,0,0,0,3.527,11.26Zm-.392-.251c-.025.04.011.09.083.121a.12.12,0,0,0,.156-.022c.025-.04-.011-.09-.083-.121A.154.154,0,0,0,3.135,11.009Zm1.176,1.1c-.058.04-.036.133.047.192a.182.182,0,0,0,.236.031c.047-.04.025-.133-.047-.192A.182.182,0,0,0,4.311,12.113ZM3.9,11.657c-.058.031-.058.112,0,.183s.156.1.2.071.058-.121,0-.192A.158.158,0,0,0,3.9,11.657Z" transform="translate(0 -0.563)"/>
</svg>
