<svg xmlns="http://www.w3.org/2000/svg" width="18" height="16" viewBox="0 0 18 16">
  <defs>
    <style>
      .cls-1 {
        fill: #fff;
        opacity: 0.3;
      }
    </style>
  </defs>
  <path id="Icon_Announcements_Events" data-name="Icon Announcements &amp; Events" class="cls-1" d="M16.954,14H11.3a2.149,2.149,0,0,1-2.262,2,2.149,2.149,0,0,1-2.262-2H1.123A1.072,1.072,0,0,1,.1,13.3a.99.99,0,0,1,.339-1.1A3.89,3.89,0,0,0,2.253,9V6c0-3.3,3.053-6,6.785-6s6.785,2.7,6.785,6V9a3.89,3.89,0,0,0,1.809,3.2c.339.3.565.7.339,1.1A1.072,1.072,0,0,1,16.954,14Z" transform="translate(-0.063)"/>
</svg>
