<?xml version="1.0" encoding="utf-8"?>
<!-- Generator: Adobe Illustrator 25.0.0, SVG Export Plug-In . SVG Version: 6.00 Build 0)  -->
<!DOCTYPE svg PUBLIC "-//W3C//DTD SVG 1.1//EN" "http://www.w3.org/Graphics/SVG/1.1/DTD/svg11.dtd" [
	<!ENTITY ns_extend "http://ns.adobe.com/Extensibility/1.0/">
	<!ENTITY ns_ai "http://ns.adobe.com/AdobeIllustrator/10.0/">
	<!ENTITY ns_graphs "http://ns.adobe.com/Graphs/1.0/">
	<!ENTITY ns_vars "http://ns.adobe.com/Variables/1.0/">
	<!ENTITY ns_imrep "http://ns.adobe.com/ImageReplacement/1.0/">
	<!ENTITY ns_sfw "http://ns.adobe.com/SaveForWeb/1.0/">
	<!ENTITY ns_custom "http://ns.adobe.com/GenericCustomNamespace/1.0/">
	<!ENTITY ns_adobe_xpath "http://ns.adobe.com/XPath/1.0/">
]>
<svg version="1.1" id="Layer_1" xmlns:x="&ns_extend;" xmlns:i="&ns_ai;" xmlns:graph="&ns_graphs;"
	 xmlns="http://www.w3.org/2000/svg" xmlns:xlink="http://www.w3.org/1999/xlink" x="0px" y="0px" viewBox="0 0 111 83"
	 style="enable-background:new 0 0 111 83;" xml:space="preserve">
<style type="text/css">
	.st0{clip-path:url(#SVGID_2_);}
	.st1{clip-path:url(#SVGID_4_);}
	.st2{fill:#008CCF;}
	.st3{fill:#231F20;}
</style>
<metadata>
	<sfw  xmlns="&ns_sfw;">
		<slices></slices>
		<sliceSourceBounds  bottomLeftOrigin="true" height="116.5" width="434.2" x="11" y="-11.3"></sliceSourceBounds>
	</sfw>
</metadata>
<g id="gs-enhanced-file-transfer">
	<g>
		<defs>
			<rect id="SVGID_1_" x="11" y="-2.6" width="434.2" height="116.5"/>
		</defs>
		<clipPath id="SVGID_2_">
			<use xlink:href="#SVGID_1_"  style="overflow:visible;"/>
		</clipPath>
		<g class="st0">
			<g>
				<defs>
					<rect id="SVGID_3_" x="11" y="-2.6" width="434.2" height="116.5"/>
				</defs>
				<clipPath id="SVGID_4_">
					<use xlink:href="#SVGID_3_"  style="overflow:visible;"/>
				</clipPath>
				<g class="st1">
					<path class="st2" d="M43.8,20.1H44v-6h9.7v42c0,12.2-7.1,19.3-21.5,19.3c-11,0-18.9-4.9-19.7-13.7h9.7
						c0.9,4.2,3.7,6.4,10.5,6.4c7.5,0,11.3-3.9,11.3-11v-7h-0.2c-2.7,4.8-7.7,7.7-13.1,7.7C18.3,57.9,11,49.4,11,35
						c0-12.6,8.1-22.1,19.9-22.1C36.8,12.9,41.5,15.4,43.8,20.1 M32.2,50.3c7.3,0,11.8-6,11.8-15.3c0-8.7-4.4-14.5-11.8-14.5
						s-11.5,6.2-11.5,15.3C20.7,44.1,25.1,50.3,32.2,50.3"/>
					<path class="st3" d="M94.9,27h-5.4c-0.2-6-4.7-9.6-11.4-9.6c-4.9,0-10.4,2-10.4,7.6c0,3.7,3.3,6.1,9.8,7.6l5.6,1.3
						c4.8,1,13.2,3.2,13.2,12.3c0,9.5-9.4,13.1-17.6,13.1c-10.8,0-17.1-5.1-18-15.4h5.4c0.4,7,5.4,10.9,12.9,10.9
						c5.6,0,12-2.5,12-8.2c0-4.5-3.3-6.7-10.4-8.2L75,37c-8.6-2-12.6-5.3-12.6-11.8c0-8.9,8.7-12.3,16.5-12.3
						C88.2,12.9,94.5,18.1,94.9,27"/>
				</g>
			</g>
		</g>
	</g>
</g>
</svg>
