<svg xmlns="http://www.w3.org/2000/svg" width="18" height="16" viewBox="0 0 18 16">
  <defs>
    <style>
      .cls-1 {
        fill: #fff;
        opacity: 0.3;
        mix-blend-mode: lighten;
        isolation: isolate;
      }
    </style>
  </defs>
  <path id="Icon_Settings" data-name="Icon Settings" class="cls-1" d="M268.882,10a2.214,2.214,0,0,0,2.368-2,2.4,2.4,0,0,0-4.737,0A2.214,2.214,0,0,0,268.882,10Zm-4.855-6.4a7.13,7.13,0,0,1,2.842-1.3l.947-2.3h2.368l.947,2.3a8.834,8.834,0,0,1,2.842,1.3l2.842-.5L278,4.9l-1.895,1.8a4.836,4.836,0,0,1,.118,1.3c0,.4-.118.9-.118,1.3L278,11.1l-1.184,1.8-2.842-.5a7.129,7.129,0,0,1-2.842,1.3l-.947,2.3h-2.368l-.947-2.3a8.834,8.834,0,0,1-2.842-1.3l-2.842.5L260,11.1l1.895-1.8a4.836,4.836,0,0,1-.118-1.3c0-.4.118-.9.118-1.3L260,4.9l1.184-1.8Z" transform="translate(-260)"/>
</svg>
