<svg xmlns="http://www.w3.org/2000/svg" width="22.332" height="15.086" viewBox="0 0 22.332 15.086">
  <defs>
    <style>
      .cls-1 {
        fill: #fff;
        opacity: 0.34;
      }
    </style>
  </defs>
  <path id="Icon_Yammer" data-name="Icon Yammer" class="cls-1" d="M21.429,7.961a.791.791,0,0,0,.3-1.127A1.265,1.265,0,0,0,20.4,6.383l-.13.055c-.752.33-5.837,3.167-5.263,3.487S19.054,9,21.429,7.961Zm0,8.53c-2.376-1.036-5.852-2.282-6.422-1.964s4.51,3.156,5.263,3.486c.045.02.089.039.13.055a1.264,1.264,0,0,0,1.328-.452.79.79,0,0,0-.3-1.125Zm2.093-5.2-.148,0c-.858,0-7.03.54-6.72,1.041s4.109.736,6.818.737a1,1,0,0,0,.951-.872.975.975,0,0,0-.9-.9ZM2.153,5.78a.934.934,0,0,1,.71-1.216,1.368,1.368,0,0,1,1.566.493l4,8.055h.06l3.8-7.995A1.264,1.264,0,0,1,13.74,4.58a.9.9,0,0,1,.735,1.138L9.069,16.456c-.915,1.855-1.831,3.125-4.6,3.125A8.614,8.614,0,0,1,3.292,19.5a.851.851,0,0,1-.747-.941,1.022,1.022,0,0,1,1.088-.7c.033,0,.538.026.684.026,1.5,0,2.158-.744,2.864-2.334Z" transform="translate(-2.09 -4.495)"/>
</svg>
