<svg xmlns="http://www.w3.org/2000/svg" width="18" height="16" viewBox="0 0 18 16">
  <defs>
    <style>
      .cls-1 {
        fill: #fff;
        opacity: 0.22;
      }
    </style>
  </defs>
  <path id="Icon_Administration" data-name="Icon Administration" class="cls-1" d="M19.2,6.368H15.6V4.684A1.739,1.739,0,0,0,13.8,3H10.2A1.739,1.739,0,0,0,8.4,4.684V6.368H4.8A1.731,1.731,0,0,0,3.009,8.053L3,17.316A1.739,1.739,0,0,0,4.8,19H19.2A1.739,1.739,0,0,0,21,17.316V8.053A1.739,1.739,0,0,0,19.2,6.368Zm-5.4,0H10.2V4.684h3.6Z" transform="translate(-3 -3)"/>
</svg>
